<?xml version="1.0" encoding="UTF-8"?>
<svg version="1.1" xmlns="http://www.w3.org/2000/svg" width="150" height="150">
<path d="M0 0 C49.5 0 99 0 150 0 C150 49.5 150 99 150 150 C100.5 150 51 150 0 150 C0 100.5 0 51 0 0 Z " fill="#F7F8F3" transform="translate(0,0)"/>
<path d="M0 0 C1.4540625 0.495 1.4540625 0.495 2.9375 1 C2.2775 3.64 1.6175 6.28 0.9375 9 C-1.7025 9 -4.3425 9 -7.0625 9 C-7.04678955 9.66531738 -7.0310791 10.33063477 -7.01489258 11.01611328 C-6.95224403 14.0523212 -6.91341491 17.08839272 -6.875 20.125 C-6.84986328 21.17171875 -6.82472656 22.2184375 -6.79882812 23.296875 C-6.72474448 31.1003521 -8.10468726 35.86175566 -13.0625 42 C-12.258125 42.763125 -11.45375 43.52625 -10.625 44.3125 C-7.18372476 47.92164232 -6.93823003 50.28056605 -7 55.0703125 C-7.00773437 56.04871094 -7.01546875 57.02710938 -7.0234375 58.03515625 C-7.04277344 59.56462891 -7.04277344 59.56462891 -7.0625 61.125 C-7.08788752 63.14838548 -7.10896184 65.17183131 -7.125 67.1953125 C-7.13660156 68.09266113 -7.14820312 68.99000977 -7.16015625 69.91455078 C-7.29751661 71.98940239 -7.29751661 71.98940239 -6.0625 73 C-3.73432036 73.36760731 -1.4006615 73.70241581 0.9375 74 C1.5975 76.64 2.2575 79.28 2.9375 82 C-0.75348409 82.92274602 -3.72036197 83.19756572 -7.5 83.25 C-8.61246094 83.27578125 -9.72492187 83.3015625 -10.87109375 83.328125 C-14.48693244 82.9563619 -16.22019136 82.24264489 -19.0625 80 C-21.71464363 76.31880874 -22.41875857 73.87787431 -22.28515625 69.3671875 C-22.25711914 67.78744141 -22.25711914 67.78744141 -22.22851562 66.17578125 C-22.19435547 65.08652344 -22.16019531 63.99726562 -22.125 62.875 C-22.06510294 60.70596173 -22.01391616 58.53666032 -21.97265625 56.3671875 C-21.94308838 55.40925293 -21.91352051 54.45131836 -21.88305664 53.46435547 C-21.87770821 50.74331096 -21.87770821 50.74331096 -24.0625 48 C-25.0525 47.67 -26.0425 47.34 -27.0625 47 C-27.0625 43.37 -27.0625 39.74 -27.0625 36 C-25.5775 35.505 -25.5775 35.505 -24.0625 35 C-21.96033608 31.91471294 -21.85359726 29.42137721 -21.97265625 25.75390625 C-21.99263672 24.75166016 -22.01261719 23.74941406 -22.03320312 22.71679688 C-22.09429087 20.61771781 -22.15938078 18.51875131 -22.22851562 16.41992188 C-22.40636928 6.87102044 -22.40636928 6.87102044 -19.0625 3 C-13.17605489 -2.18567784 -7.24078665 -2.02272987 0 0 Z " fill="#050505" transform="translate(57.0625,34)"/>
<path d="M0 0 C2.87659826 -0.1356886 5.74673463 -0.23440753 8.625 -0.3125 C9.43324219 -0.35439453 10.24148437 -0.39628906 11.07421875 -0.43945312 C15.31428762 -0.52563339 18.13350622 -0.36998511 21.5234375 2.33203125 C24.15526765 5.16726783 24.98083983 6.6185516 25.03417969 10.46435547 C24.97858887 11.90125732 24.97858887 11.90125732 24.921875 13.3671875 C24.89609375 14.41777344 24.8703125 15.46835937 24.84375 16.55078125 C24.78145614 18.75961784 24.70343138 20.96806908 24.609375 23.17578125 C24.32842987 29.60986505 24.32842987 29.60986505 27.4765625 34.9765625 C28.30929688 35.64429688 29.14203125 36.31203125 30 37 C30.6640625 39.28125 30.6640625 39.28125 30.625 41.5 C30.63789062 42.2321875 30.65078125 42.964375 30.6640625 43.71875 C30 46 30 46 27.46875 48.03125 C23.63101895 52.64624303 24.57791509 57.21029866 24.875 63 C24.96971918 65.14526133 25.05094277 67.29117069 25.1171875 69.4375 C25.18848877 70.85869141 25.18848877 70.85869141 25.26123047 72.30859375 C24.87102163 76.32883884 23.03345541 78.89444305 20.3203125 81.796875 C16.91430012 83.56295549 13.61336858 83.35700161 9.875 83.25 C9.14667969 83.24484375 8.41835937 83.2396875 7.66796875 83.234375 C2.31029762 83.15514881 2.31029762 83.15514881 0 82 C0.875 76.25 0.875 76.25 2 74 C4.32716 73.62599214 6.66117862 73.29235267 9 73 C10.23459535 71.99342415 10.23459535 71.99342415 10.06591797 69.94628906 C10.04158691 69.06166992 10.01725586 68.17705078 9.9921875 67.265625 C9.96705078 65.81542969 9.96705078 65.81542969 9.94140625 64.3359375 C9.89746753 62.29407932 9.84550727 60.2523765 9.78515625 58.2109375 C9.65178025 49.06861911 9.65178025 49.06861911 13 45 C13.556875 44.236875 14.11375 43.47375 14.6875 42.6875 C15.120625 42.130625 15.55375 41.57375 16 41 C14.7934375 39.6078125 14.7934375 39.6078125 13.5625 38.1875 C10.48653904 34.63831428 9.87466651 31.79375235 9.9375 27.1484375 C9.94910156 25.74851562 9.94910156 25.74851562 9.9609375 24.3203125 C9.97382812 23.34835938 9.98671875 22.37640625 10 21.375 C10.02538991 19.44536707 10.04646343 17.51567082 10.0625 15.5859375 C10.07410156 14.7304834 10.08570312 13.8750293 10.09765625 12.99365234 C10.22370417 10.99981589 10.22370417 10.99981589 9 10 C6.67182036 9.63239269 4.3381615 9.29758419 2 9 C1.34 6.03 0.68 3.06 0 0 Z " fill="#040404" transform="translate(91,34)"/>
<path d="M0 0 C1.74271938 2.297221 3.39911152 4.59866729 5 7 C4.625 9.1875 4.625 9.1875 4 11 C5.32 11.66 6.64 12.32 8 13 C4.625 13.125 4.625 13.125 1 13 C-1 11 -1 11 -1.23046875 8.65234375 C-1.21628906 7.75644531 -1.20210937 6.86054687 -1.1875 5.9375 C-1.18105469 5.03902344 -1.17460938 4.14054687 -1.16796875 3.21484375 C-1 1 -1 1 0 0 Z " fill="#DCDCDA" transform="translate(50,95)"/>
<path d="M0 0 C0.66 0 1.32 0 2 0 C2 3.3 2 6.6 2 10 C2.66 10.33 3.32 10.66 4 11 C4 12.66666667 4 14.33333333 4 16 C-0.55384615 16.36923077 -0.55384615 16.36923077 -2.8125 14.5 C-3.204375 14.005 -3.59625 13.51 -4 13 C-3.01773438 12.41798828 -3.01773438 12.41798828 -2.015625 11.82421875 C0.23981033 10.16674709 0.23981033 10.16674709 0.390625 7.51953125 C0.34421875 6.62621094 0.2978125 5.73289062 0.25 4.8125 C0.21390625 3.91144531 0.1778125 3.01039062 0.140625 2.08203125 C0.09421875 1.39496094 0.0478125 0.70789063 0 0 Z " fill="#DCDDD9" transform="translate(120,70)"/>
<path d="M0 0 C0.33 0 0.66 0 1 0 C1.05395478 1.62463842 1.09277195 3.24978541 1.125 4.875 C1.14820312 5.77992187 1.17140625 6.68484375 1.1953125 7.6171875 C1 10 1 10 -1 12 C-4.625 12.125 -4.625 12.125 -8 12 C-5.78065836 8.67098753 -4.65316671 8.24976756 -1 7 C-0.67 4.69 -0.34 2.38 0 0 Z " fill="#C7C8C3" transform="translate(101,96)"/>
<path d="M0 0 C2.49011302 1.24505651 4.03505587 3.03505587 6 5 C5.34 6.32 4.68 7.64 4 9 C3.34 9 2.68 9 2 9 C0.21694476 6.36107824 -0.99059621 4.02821137 -2 1 C-1.34 0.67 -0.68 0.34 0 0 Z " fill="#E7E7E6" transform="translate(113,33)"/>
<path d="M0 0 C5.61 0 11.22 0 17 0 C17 0.33 17 0.66 17 1 C12.05 1 7.1 1 2 1 C2.33 2.65 2.66 4.3 3 6 C2.34 6.99 1.68 7.98 1 9 C0.29925156 5.846632 0 3.27275026 0 0 Z " fill="#CCCCCA" transform="translate(89,33)"/>
<path d="M0 0 C2.31 0.66 4.62 1.32 7 2 C7 2.99 7 3.98 7 5 C4.69 5.66 2.38 6.32 0 7 C0 4.69 0 2.38 0 0 Z " fill="#EFF0EB" transform="translate(27,80)"/>
<path d="M0 0 C0.66 0.66 1.32 1.32 2 2 C1.21625 2.598125 0.4325 3.19625 -0.375 3.8125 C-3.14574323 5.91085249 -3.14574323 5.91085249 -5 9 C-5.33 7.35 -5.66 5.7 -6 4 C-4.02 2.68 -2.04 1.36 0 0 Z " fill="#D9DAD6" transform="translate(40,33)"/>
<path d="M0 0 C1.485 0.99 1.485 0.99 3 2 C3 2.99 3 3.98 3 5 C4.32 5.33 5.64 5.66 7 6 C5.02 6.99 5.02 6.99 3 8 C0.37613513 4.93882432 0 4.26826873 0 0 Z " fill="#DCDCDB" transform="translate(115,62)"/>
</svg>
